{"title":"Justin Bieber - What Do You Mean.mp4","uid":13207063,"size":82628996,"categoryP":"video","categoryS":"music_videos","magnet":"?xt=urn:btih:b7bb082f4002e256dfa31120bb85b8d9f90beb9e&amp;dn=Justin+Bieber+-+What+Do+You+Mean.mp4&amp;tr=udp%3A%2F%2Ftracker.leechers-paradise.org%3A6969&amp;tr=udp%3A%2F%2Fzer0day.ch%3A1337&amp;tr=udp%3A%2F%2Fopen.demonii.com%3A1337&amp;tr=udp%3A%2F%2Ftracker.coppersurfer.tk%3A6969&amp;tr=udp%3A%2F%2Fexodus.desync.com%3A6969","seeders":0,"leechers":1,"uploader":null,"files":1,"time":1452609992,"description":"Justin Bieber - What Do You Mean (Music Video) 1080P\r\n\r\nID                                       : 1\r\nFormat                                   : AVC\r\nFormat/Info                              : Advanced Video Codec\r\nFormat profile                           :   \r\nFormat settings, CABAC                   : Yes\r\nFormat settings, ReFrames                : 3 frames\r\nCodec ID                                 : avc1\r\nCodec ID/Info                            : Advanced Video Coding\r\nDuration                                 : 4mn 57s\r\nBit rate                                 : 2 087 Kbps\r\nWidth                                    : 1 920 pixels\r\nHeight                                   : 1 080 pixels\r\nDisplay aspect ratio                     : 16:9\r\nFrame rate mode                          : Variable\r\nFrame rate                               : 23.976 fps\r\nMinimum frame rate                       : 23.974 fps\r\nMaximum frame rate                       : 90 000.000 fps\r\nColor space                              : YUV\r\nChroma subsampling                       : 4:2:0\r\nBit depth                                : 8 bits\r\nScan type                                : Progressive\r\nBits/(Pixel*Frame)                       : 0.042\r\nStream size                              : 74.1 MiB (94%)\r\nColor primaries                          : BT.709\r\nTransfer characteristics                 : BT.709\r\nMatrix coefficients                      : BT.709\r\n\r\nID                                       : 2\r\nFormat                                   : AAC\r\nFormat/Info                              : Advanced Audio Codec\r\nFormat profile                           : LC\r\nCodec ID                                 : 40\r\nDuration                                 : 4mn 57s\r\nBit rate mode                            : Constant\r\nBit rate                                 : 126 Kbps\r\nChannel(s)                               : 2 channels\r\nChannel positions                        : Front: L R\r\nSampling rate                            : 44.1 KHz\r\nCompression mode                         : Lossy\r\nStream size                              : 4.46 MiB (6%)","torrent":{"xt":"urn:btih:b7bb082f4002e256dfa31120bb85b8d9f90beb9e","amp;dn":"Justin+Bieber+-+What+Do+You+Mean.mp4","amp;tr":["udp%3A%2F%2Ftracker.leechers-paradise.org%3A6969","udp%3A%2F%2Fzer0day.ch%3A1337","udp%3A%2F%2Fopen.demonii.com%3A1337","udp%3A%2F%2Ftracker.coppersurfer.tk%3A6969","udp%3A%2F%2Fexodus.desync.com%3A6969"],"infoHash":"b7bb082f4002e256dfa31120bb85b8d9f90beb9e","infoHashBuffer":{"type":"Buffer","data":[183,187,8,47,64,2,226,86,223,163,17,32,187,133,184,217,249,11,235,158]},"announce":[],"urlList":[]}}